<?xml version="1.0" encoding="UTF-8"?>
<svg version="1.1" xmlns="http://www.w3.org/2000/svg" width="2000" height="2000">
<path d="M0 0 C2.28653296 -0.0016514 4.57306565 -0.00373848 6.85959786 -0.0062201 C13.14783615 -0.01177382 19.43606079 -0.01111671 25.72430075 -0.00944251 C31.85804014 -0.0082954 37.99177683 -0.01282536 44.12551467 -0.01670653 C56.82076579 -0.02456638 69.5160141 -0.0276679 82.21126747 -0.02815247 C95.07404022 -0.02865525 107.93680982 -0.03130625 120.79958153 -0.03656006 C121.6125315 -0.03689019 122.42548146 -0.03722033 123.26306628 -0.03756046 C126.57421127 -0.0389105 129.88535624 -0.04027317 133.19650122 -0.04165257 C172.37704666 -0.05794581 211.5575915 -0.06434016 250.73813976 -0.06910044 C270.25348175 -0.07148481 289.7688234 -0.07518853 309.28416513 -0.07913754 C371.90446459 -0.09180173 434.52476403 -0.10258523 497.14506474 -0.10597799 C500.13735039 -0.10614023 503.12963604 -0.10630579 506.12192168 -0.10647238 C512.12285258 -0.10680617 518.12378348 -0.10713665 524.12471437 -0.10746694 C531.15012928 -0.10785383 538.17554418 -0.10824344 545.20095908 -0.108638 C547.21167883 -0.10875042 549.22239858 -0.10886184 551.23311834 -0.10897225 C615.79253281 -0.11252069 680.35193614 -0.12759518 744.91134637 -0.15091 C791.30748967 -0.1676586 837.70363086 -0.18312961 884.09977722 -0.18764496 C885.05455544 -0.18773844 886.00933367 -0.18783193 886.99304456 -0.18792825 C907.95610035 -0.1899476 928.9191561 -0.19110339 949.88221197 -0.19145683 C957.38392448 -0.191593 964.88563699 -0.19180199 972.3873495 -0.19205009 C974.25351772 -0.19211165 976.11968594 -0.19216997 977.98585417 -0.19222504 C1007.68530995 -0.19314371 1037.38475408 -0.20309818 1067.08420603 -0.21768252 C1097.01291913 -0.23232059 1126.94161797 -0.2373267 1156.87033402 -0.22926298 C1161.01352967 -0.22814773 1165.15672534 -0.22713704 1169.29992104 -0.22618866 C1170.1120387 -0.22599869 1170.92415636 -0.22580872 1171.76088365 -0.225613 C1184.5777131 -0.22288804 1197.39451602 -0.23019331 1210.2113397 -0.24176203 C1222.83950207 -0.25294902 1235.46762725 -0.25328816 1248.09579025 -0.24239184 C1254.84041853 -0.2368618 1261.58494425 -0.23625102 1268.32957071 -0.24890056 C1334.63521009 -0.36527429 1396.18006681 8.77001716 1455.60095978 40.13142776 C1456.37262482 40.53587112 1457.14428986 40.94031448 1457.93933868 41.3570137 C1476.31744561 51.04351146 1493.18351385 62.43176018 1509.60095978 75.13142776 C1510.53553009 75.85072464 1511.4701004 76.57002151 1512.43299103 77.31111526 C1517.85358451 81.56222637 1522.95858406 86.10388869 1528.02283478 90.77205276 C1530.14060133 92.71013004 1532.28790912 94.58684275 1534.47595978 96.44392776 C1538.1861608 99.67218515 1541.6791686 103.10099243 1545.16345978 106.56892776 C1545.69374786 107.09462357 1546.22403595 107.62031937 1546.77039337 108.16194534 C1602.26022986 163.86553313 1635.98284404 240.47674301 1644.60095978 318.13142776 C1644.69025349 318.90433016 1644.77954721 319.67723255 1644.87154679 320.47355622 C1645.93102663 331.11155449 1645.74176818 341.77934253 1645.73238754 352.45706558 C1645.73403863 354.74785195 1645.73612556 357.03863804 1645.73860765 359.32942367 C1645.74416544 365.63412693 1645.7435035 371.93881659 1645.74183005 378.24352153 C1645.74068364 384.39184505 1645.74521193 390.54016588 1645.74909407 396.68848786 C1645.75695646 409.41503025 1645.76005557 422.14156984 1645.76054001 434.86811447 C1645.7610427 447.76355755 1645.76369273 460.6589975 1645.7689476 473.55443954 C1645.76927773 474.36929112 1645.76960787 475.1841427 1645.76994801 476.02368675 C1645.77129803 479.34254754 1645.7726607 482.66140833 1645.77404011 485.9802691 C1645.79033586 525.25786217 1645.79672803 564.53545463 1645.80148798 603.81305051 C1645.80387211 623.3760399 1645.80757578 642.93902894 1645.81152508 662.50201807 C1645.82418953 725.27179316 1645.83497298 788.04156823 1645.83836554 850.81134458 C1645.83852778 853.81096 1645.83869334 856.81057542 1645.83885992 859.81019085 C1645.83919372 865.8258471 1645.8395242 871.84150336 1645.83985448 877.85715961 C1645.84024137 884.89985211 1645.84063098 891.94254461 1645.84102554 898.9852371 C1645.84113796 901.00090386 1645.84124938 903.01657061 1645.8413598 905.03223737 C1645.84490825 969.75083147 1645.85998267 1034.46941446 1645.88329754 1099.18800432 C1645.90004554 1145.69678899 1645.91551692 1192.20557156 1645.9200325 1238.71435928 C1645.92017273 1240.1499293 1645.92017273 1240.1499293 1645.92031579 1241.61450073 C1645.92233512 1262.62711942 1645.92349093 1283.63973807 1645.92384438 1304.65235685 C1645.92398054 1312.17176698 1645.92418953 1319.6911771 1645.92443763 1327.21058723 C1645.92449919 1329.08116735 1645.92455751 1330.95174747 1645.92461258 1332.82232759 C1645.92553136 1362.59533697 1645.93548707 1392.36833473 1645.95007007 1422.14134029 C1645.9647064 1452.14339799 1645.96971532 1482.14544147 1645.96165052 1512.14750211 C1645.96053526 1516.30033438 1645.95952457 1520.45316668 1645.9585762 1524.60599899 C1645.95838623 1525.42001034 1645.95819627 1526.23402168 1645.95800054 1527.07270004 C1645.95527497 1539.92242747 1645.96258285 1552.77212844 1645.97414957 1565.62185013 C1645.98533313 1578.28065376 1645.98567909 1590.93942028 1645.97477939 1603.59822453 C1645.96924708 1610.35997728 1645.96864557 1617.12162768 1645.98128811 1623.88337862 C1646.09667221 1689.82602314 1636.7700427 1751.07494069 1605.60095978 1810.13142776 C1605.19651642 1810.9030928 1604.79207306 1811.67475784 1604.37537384 1812.46980667 C1594.68887608 1830.84791359 1583.30062737 1847.71398184 1570.60095978 1864.13142776 C1569.52201447 1865.53328323 1569.52201447 1865.53328323 1568.42127228 1866.96345901 C1564.17016117 1872.38405249 1559.62849885 1877.48905205 1554.96033478 1882.55330276 C1553.02225751 1884.67106932 1551.14554479 1886.81837711 1549.28845978 1889.00642776 C1541.75496771 1897.66458808 1533.4069521 1905.77917611 1524.60095978 1913.13142776 C1523.74631134 1913.86361526 1522.8916629 1914.59580276 1522.01111603 1915.35017776 C1504.74816775 1929.99471912 1486.23027924 1942.86819899 1466.60095978 1954.13142776 C1465.78740021 1954.59839066 1464.97384064 1955.06535355 1464.13562775 1955.54646683 C1422.26797606 1979.38873926 1375.44464844 1993.82173592 1327.60095978 1999.13142776 C1326.82805739 1999.22072148 1326.055155 1999.31001519 1325.25883132 1999.40201478 C1314.62083305 2000.46149462 1303.95304501 2000.27223617 1293.27532196 2000.26285553 C1290.98453559 2000.26450661 1288.6937495 2000.26659355 1286.40296388 2000.26907563 C1280.09826061 2000.27463343 1273.79357095 2000.27397149 1267.48886602 2000.27229804 C1261.34054249 2000.27115163 1255.19222167 2000.27567992 1249.04389968 2000.27956206 C1236.31735729 2000.28742445 1223.5908177 2000.29052355 1210.86427307 2000.291008 C1197.96882999 2000.29151069 1185.07339005 2000.29416072 1172.177948 2000.29941559 C1171.36309642 2000.29974572 1170.54824484 2000.30007586 1169.70870079 2000.30041599 C1166.38984 2000.30176602 1163.07097922 2000.30312869 1159.75211844 2000.3045081 C1120.47452537 2000.32080384 1081.19693291 2000.32719602 1041.91933703 2000.33195597 C1022.35634764 2000.3343401 1002.7933586 2000.33804377 983.23036947 2000.34199307 C920.46059438 2000.35465752 857.69081931 2000.36544096 794.92104297 2000.36883352 C791.92142754 2000.36899576 788.92181212 2000.36916132 785.92219669 2000.36932791 C779.90654044 2000.3696617 773.89088418 2000.36999218 767.87522793 2000.37032247 C760.83253543 2000.37070936 753.78984294 2000.37109897 746.74715044 2000.37149353 C744.73148368 2000.37160595 742.71581693 2000.37171737 740.70015017 2000.37182778 C675.98155607 2000.37537624 611.26297308 2000.39045066 546.54438323 2000.41376553 C500.03559855 2000.43051353 453.52681598 2000.44598491 407.01802826 2000.45050049 C406.06098158 2000.45059397 405.1039349 2000.45068746 404.11788681 2000.45078378 C383.10526812 2000.45280311 362.09264947 2000.45395892 341.08003069 2000.45431236 C333.56062056 2000.45444853 326.04121044 2000.45465752 318.52180031 2000.45490562 C316.65122019 2000.45496718 314.78064007 2000.4550255 312.91005995 2000.45508057 C283.13705058 2000.45599934 253.36405281 2000.46595506 223.59104726 2000.48053805 C193.58898955 2000.49517439 163.58694608 2000.50018331 133.58488543 2000.49211851 C129.43205316 2000.49100325 125.27922086 2000.48999256 121.12638855 2000.48904419 C120.31237721 2000.48885422 119.49836586 2000.48866425 118.65968751 2000.48846853 C105.80996008 2000.48574295 92.9602591 2000.49305084 80.11053741 2000.50461756 C67.45173379 2000.51580111 54.79296726 2000.51614708 42.13416301 2000.50524737 C35.37241027 2000.49971507 28.61075986 2000.49911356 21.84900892 2000.51175609 C-44.0936356 2000.62714019 -105.34255315 1991.30051069 -164.39904022 1960.13142776 C-165.17070526 1959.72698441 -165.9423703 1959.32254105 -166.73741913 1958.90584183 C-185.11552605 1949.21934407 -201.9815943 1937.83109535 -218.39904022 1925.13142776 C-219.80089569 1924.05248245 -219.80089569 1924.05248245 -221.23107147 1922.95174026 C-226.65166495 1918.70062916 -231.7566645 1914.15896684 -236.82091522 1909.49080276 C-238.93868178 1907.55272549 -241.08598957 1905.67601278 -243.27404022 1903.81892776 C-246.98424125 1900.59067038 -250.47724904 1897.1618631 -253.96154022 1893.69392776 C-254.75697235 1892.90538406 -254.75697235 1892.90538406 -255.56847382 1892.10091019 C-311.05831031 1836.3973224 -344.78092449 1759.78611252 -353.39904022 1682.13142776 C-353.48833394 1681.35852537 -353.57762765 1680.58562298 -353.66962723 1679.78929931 C-354.72910707 1669.15130104 -354.53984862 1658.483513 -354.53046799 1647.80578995 C-354.53211907 1645.51500358 -354.534206 1643.22421749 -354.53668809 1640.93343186 C-354.54224589 1634.6287286 -354.54158394 1628.32403894 -354.5399105 1622.019334 C-354.53876409 1615.87101048 -354.54329237 1609.72268965 -354.54717452 1603.57436767 C-354.55503691 1590.84782528 -354.55813601 1578.12128569 -354.55862045 1565.39474106 C-354.55912315 1552.49929798 -354.56177317 1539.60385803 -354.56702805 1526.70841599 C-354.56735818 1525.89356441 -354.56768831 1525.07871283 -354.56802845 1524.23916878 C-354.56937848 1520.92030799 -354.57074115 1517.6014472 -354.57212056 1514.28258643 C-354.5884163 1475.00499336 -354.59480848 1435.72740089 -354.59956843 1396.44980502 C-354.60195255 1376.88681563 -354.60565623 1357.32382658 -354.60960552 1337.76083746 C-354.62226998 1274.99106237 -354.63305342 1212.2212873 -354.63644598 1149.45151095 C-354.63660822 1146.45189553 -354.63677378 1143.4522801 -354.63694037 1140.45266468 C-354.63727416 1134.43700843 -354.63760464 1128.42135217 -354.63793492 1122.40569592 C-354.63832182 1115.36300342 -354.63871143 1108.32031092 -354.63910599 1101.27761843 C-354.63921841 1099.26195167 -354.63932983 1097.24628492 -354.63944024 1095.23061816 C-354.6429887 1030.51202406 -354.65806312 965.79344107 -354.68137799 901.07485121 C-354.69812599 854.56606654 -354.71359736 808.05728397 -354.71811295 761.54849625 C-354.71820643 760.59144957 -354.71829992 759.63440289 -354.71839624 758.6483548 C-354.72041557 737.63573611 -354.72157138 716.62311746 -354.72192482 695.61049868 C-354.72206099 688.09108855 -354.72226998 680.57167843 -354.72251807 673.0522683 C-354.72257963 671.18168818 -354.72263796 669.31110806 -354.72269302 667.44052794 C-354.7236118 637.66751856 -354.73356752 607.8945208 -354.74815051 578.12151524 C-354.76278684 548.11945754 -354.76779577 518.11741406 -354.75973097 488.11535342 C-354.75861571 483.96252115 -354.75760502 479.80968885 -354.75665665 475.65685654 C-354.75646668 474.84284519 -354.75627671 474.02883385 -354.75608099 473.19015549 C-354.75335541 460.34042806 -354.7606633 447.49072708 -354.77223001 434.6410054 C-354.78341357 421.98220177 -354.78375954 409.32343525 -354.77285983 396.664631 C-354.76732753 389.90287825 -354.76672602 383.14122785 -354.77936855 376.3794769 C-354.89475265 310.43683239 -345.56812315 249.18791484 -314.39904022 190.13142776 C-313.79237518 188.97393021 -313.79237518 188.97393021 -313.17345428 187.79304886 C-299.71475858 162.25798398 -282.95542339 138.77850244 -263.50060272 117.45174026 C-261.67621228 115.43745045 -259.9081022 113.38994162 -258.14904022 111.31892776 C-250.58548421 102.64463975 -242.22504397 94.50988648 -233.39904022 87.13142776 C-232.53472382 86.37539261 -232.53472382 86.37539261 -231.65294647 85.60408401 C-227.64159562 82.13142776 -227.64159562 82.13142776 -225.39904022 82.13142776 C-225.39904022 81.47142776 -225.39904022 80.81142776 -225.39904022 80.13142776 C-223.12483921 78.25207458 -220.84180906 76.49327675 -218.46154022 74.75642776 C-217.73644257 74.22259476 -217.01134491 73.68876175 -216.2642746 73.13875198 C-214.73511235 72.01690535 -213.20330812 70.89865222 -211.66905975 69.78377151 C-209.56885371 68.25503474 -207.48150072 66.71020905 -205.39513397 65.16267776 C-193.62115536 56.53837975 -181.10531126 49.28545594 -168.39904022 42.13142776 C-167.67442596 41.71876663 -166.94981171 41.3061055 -166.20323944 40.88093948 C-116.10392622 12.44619414 -57.15945217 -0.05040254 0 0 Z " fill="#000000" transform="translate(354.39904022216797,-0.13142776489257813)"/>
<path d="M0 0 C1.09282791 -0.00060425 1.09282791 -0.00060425 2.20773315 -0.0012207 C14.03949839 0.03641823 24.94434031 0.95405022 36 5.4375 C37.07121094 5.8715918 37.07121094 5.8715918 38.1640625 6.31445312 C50.88257369 11.68221188 62.39707852 19.27674362 68 32.4375 C70.63911838 40.25506516 71.43557765 47.4221217 71.40063477 55.63842773 C71.40761383 56.80403732 71.4145929 57.96964691 71.42178345 59.170578 C71.44162949 62.98749191 71.4412595 66.80413307 71.44140625 70.62109375 C71.45318626 73.28624078 71.46631425 75.95134399 71.48143005 78.61647034 C71.52218939 86.32065102 71.54097242 94.02480851 71.55760193 101.72907257 C71.58004318 111.56096107 71.6135004 121.39278402 71.66480106 131.22456509 C71.68789099 135.80659431 71.6944916 140.38848579 71.69789124 144.9705658 C71.70766345 147.36115736 71.71792605 149.75174699 71.72875977 152.14233398 C71.72620682 153.23276001 71.72365387 154.32318604 71.72102356 155.44665527 C71.72785156 156.44595566 71.73467957 157.44525604 71.74171448 158.47483826 C71.74416593 159.77525889 71.74416593 159.77525889 71.74666691 161.10195065 C72.02415148 163.66015934 72.62834202 165.26986064 74 167.4375 C77.06381594 168.96940797 80.26965866 168.53993613 83.625 168.5 C86.05875 168.479375 88.4925 168.45875 91 168.4375 C91 176.0275 91 183.6175 91 191.4375 C79.21744343 194.97226697 79.21744343 194.97226697 72.5625 194.875 C71.83385742 194.86887695 71.10521484 194.86275391 70.35449219 194.85644531 C62.14608032 194.62067564 53.80895834 192.58816177 48 186.4375 C43.27432151 180.60315794 41.90670796 174.79942728 41 167.4375 C40.50113281 167.98277344 40.00226563 168.52804687 39.48828125 169.08984375 C22.88577585 186.52694547 1.56625612 195.99320614 -22.4284668 196.83544922 C-40.64422624 197.11561185 -56.29294873 192.55078781 -69.77734375 179.79296875 C-80.08867894 168.86549051 -83.17862436 157.31455662 -83.1875 142.6875 C-83.19974609 141.64078125 -83.21199219 140.5940625 -83.22460938 139.515625 C-83.2521445 124.8302234 -78.95572206 112.11296033 -68.6875 101.4375 C-53.00471825 86.94473963 -33.97889683 84.61151973 -13.5625 82.25 C-11.51480815 82.00201638 -9.46728045 81.7526734 -7.41992188 81.50195312 C0.07889129 80.58962545 7.57980451 79.69908529 15.08911133 78.87719727 C16.25803673 78.7468232 16.25803673 78.7468232 17.45057678 78.61381531 C19.51308443 78.38481781 21.57634011 78.16258523 23.63964844 77.94091797 C28.33711092 77.23718594 31.14558085 76.2338433 35 73.4375 C38.93507085 67.89294972 39.62795529 63.71232141 39.5 57 C39.51546875 56.19240234 39.5309375 55.38480469 39.546875 54.55273438 C39.50342096 47.81192709 37.65890283 42.74459307 33.4296875 37.484375 C23.52465954 29.22188936 11.30701078 27.05291613 -1.25 27.125 C-2.26980957 27.13063965 -3.28961914 27.1362793 -4.34033203 27.14208984 C-15.61222519 27.32386554 -25.27626989 28.78906068 -34 36.4375 C-40.85433693 43.5678505 -43.62301074 51.79857515 -45 61.4375 C-54.57 61.4375 -64.14 61.4375 -74 61.4375 C-74 45.41475764 -70.62700379 31.04336672 -59.4375 19.0625 C-50.18916662 10.54282319 -39.21414233 5.25079162 -27 2.4375 C-25.87150635 2.1758606 -25.87150635 2.1758606 -24.72021484 1.90893555 C-16.51920133 0.19751956 -8.34508257 -0.00473406 0 0 Z " fill="#FCFCFC" transform="translate(1628,931.5625)"/>
<path d="M0 0 C11.22 0 22.44 0 34 0 C34 34.65 34 69.3 34 105 C77.56 105 121.12 105 166 105 C166 70.35 166 35.7 166 0 C177.55 0 189.1 0 201 0 C201 84.15 201 168.3 201 255 C189.45 255 177.9 255 166 255 C166 215.73 166 176.46 166 136 C122.11 136 78.22 136 33 136 C33 174.94 33 213.88 33 254 C22.11 254 11.22 254 0 254 C0 170.18 0 86.36 0 0 Z " fill="#FCFCFC" transform="translate(303,868)"/>
<path d="M0 0 C3.01535971 2.6278676 5.80238677 5.42996505 8.57421875 8.3125 C9.23808594 8.96863281 9.90195312 9.62476563 10.5859375 10.30078125 C31.12734591 31.85771997 34.57421875 66.31602268 34.57421875 94.3125 C-10.30578125 94.3125 -55.18578125 94.3125 -101.42578125 94.3125 C-99.38190158 112.71722537 -99.38190158 112.71722537 -93.42578125 129.3125 C-92.97203125 130.22257812 -92.51828125 131.13265625 -92.05078125 132.0703125 C-85.88830179 143.29004412 -76.38051468 149.18890859 -64.42578125 153.125 C-49.53621714 156.78429965 -32.66718998 154.97346582 -19.48828125 147.0625 C-8.41541608 139.31313968 -3.12742599 131.26825659 0.57421875 118.3125 C10.80421875 118.3125 21.03421875 118.3125 31.57421875 118.3125 C29.33900174 136.19423607 21.02851368 149.80429037 8.57421875 162.3125 C7.93871094 162.9828125 7.30320312 163.653125 6.6484375 164.34375 C-9.95585597 180.54306071 -34.71724929 182.84003997 -56.59375 182.58203125 C-74.63704941 182.07965986 -91.98758207 175.58874962 -105.42578125 163.3125 C-106.2559375 162.56226563 -107.08609375 161.81203125 -107.94140625 161.0390625 C-125.95774219 143.93972569 -133.73610868 120.26292079 -134.765625 95.90625 C-135.54383923 62.97653104 -129.24207264 32.53107309 -106.36328125 7.6875 C-96.20929996 -2.02500384 -83.93834191 -8.21846817 -70.42578125 -11.6875 C-69.5028125 -11.93113281 -68.57984375 -12.17476562 -67.62890625 -12.42578125 C-45.31349177 -17.16619444 -18.12228681 -14.84895867 0 0 Z " fill="#FDFDFD" transform="translate(681.42578125,945.6875)"/>
<path d="M0 0 C18.61553328 15.55019675 26.91138488 39.61042784 30.3125 62.875 C31.13127729 72.55145892 31 82.28896229 31 92 C-13.55 92 -58.1 92 -104 92 C-103.26609509 103.88287297 -103.26609509 103.88287297 -100.8125 115.1875 C-100.48149292 116.32711182 -100.48149292 116.32711182 -100.14379883 117.48974609 C-96.39037172 129.82449675 -90.51161903 139.65406235 -78.95141602 145.94213867 C-64.71674387 153.21264826 -48.46572742 154.18228122 -33 150 C-20.80191481 145.39423332 -11.68177479 137.0720255 -5.1875 125.875 C-3.86703055 122.67807396 -2.95023237 119.3258133 -2 116 C8.23 116 18.46 116 29 116 C24.95933332 136.20333339 15.88322659 153.65451265 -1.0625 165.9375 C-9.50944119 171.41803507 -18.31568806 175.25191148 -28 178 C-28.63204346 178.18022705 -29.26408691 178.3604541 -29.9152832 178.54614258 C-36.61263671 180.26041439 -43.17692837 180.3458056 -50.0625 180.3125 C-51.2575415 180.30758545 -52.45258301 180.3026709 -53.68383789 180.29760742 C-76.30137505 179.99894014 -96.76836753 173.14445704 -113.1796875 157.00390625 C-133.87271486 135.57434741 -137.55231542 107.17609047 -137.1875 78.7109375 C-136.57513458 51.17745751 -128.14890488 23.59842254 -108 4 C-78.47431352 -21.83170859 -30.95688135 -24.36154045 0 0 Z " fill="#FDFDFD" transform="translate(1128,948)"/>
<path d="M0 0 C15.29571464 14.05417936 20.31796744 31.81560928 22 52 C12.1 52 2.2 52 -8 52 C-8.70125 49.56625 -9.4025 47.1325 -10.125 44.625 C-13.62562054 33.17990597 -18.56199133 24.14670128 -29.04296875 17.75390625 C-40.10049459 11.9150193 -53.26778141 11.25156943 -65.43359375 13.6875 C-68.11819643 14.6014073 -70.50869895 15.6491425 -73 17 C-73.78375 17.42410156 -74.5675 17.84820313 -75.375 18.28515625 C-88.94945551 26.51696289 -96.20987336 40.71322365 -100.5 55.5625 C-106.28049263 80.75410411 -103.80569597 112.94324355 -90 135 C-84.09849608 144.12888887 -73.39092708 149.54852122 -63 152 C-48.7783965 153.40460281 -36.80187322 151.05018463 -25.625 142.09765625 C-15.73735616 133.12862797 -12.13673587 121.4102076 -8 109 C1.9 109 11.8 109 22 109 C18.2204723 131.6771662 11.38194965 152.83889242 -8 167 C-27.15536411 179.6715962 -50.06110551 183.55128138 -72.64770508 178.97192383 C-85.33081427 175.84602174 -97.17026792 169.53418162 -107 161 C-107.57492187 160.57847656 -108.14984375 160.15695312 -108.7421875 159.72265625 C-123.96264274 148.18456922 -132.42447137 126.53510519 -135.59863281 108.35888672 C-136.34771069 102.09014376 -136.29455498 95.80950332 -136.26074219 89.50341797 C-136.25005027 87.13613081 -136.26067597 84.76960754 -136.2734375 82.40234375 C-136.30179729 53.07736408 -127.87516458 26.24594903 -107 5 C-106.38769531 4.37480469 -105.77539062 3.74960937 -105.14453125 3.10546875 C-78.1043614 -22.43567249 -28.12514392 -23.97414376 0 0 Z " fill="#FCFCFC" transform="translate(1498,948)"/>
<path d="M0 0 C11.88 0 23.76 0 36 0 C43.19495017 20.33957068 43.19495017 20.33957068 45.86889648 29.28027344 C47.20646668 33.67898257 48.59267859 38.06082146 49.98828125 42.44140625 C50.43920891 43.85763527 50.43920891 43.85763527 50.89924622 45.30247498 C53.55366548 53.62558074 56.23313923 61.94057173 58.91796875 70.25390625 C59.13154148 70.91521545 59.34511421 71.57652466 59.56515884 72.25787354 C61.55498349 78.4184366 63.54595534 84.57862867 65.5378418 90.73852539 C66.64247153 94.15475473 67.74620363 97.57127308 68.84942055 100.98795891 C69.45795464 102.87171247 70.06748213 104.75514503 70.67704773 106.63856506 C72.87631804 113.45039806 75.02563759 120.27504864 77.11756897 127.12063599 C78.46783394 131.52653766 79.85792921 135.91966435 81.25 140.3125 C81.6521875 141.58383789 81.6521875 141.58383789 82.0625 142.88085938 C82.70787863 144.92071683 83.35386927 146.96038065 84 149 C85.83774914 146.24337629 86.76520227 144.11764005 87.82495117 141.01757812 C88.35359268 139.48181374 88.35359268 139.48181374 88.89291382 137.9150238 C89.27243195 136.79837845 89.65195007 135.68173309 90.04296875 134.53125 C90.44327301 133.36501602 90.84357727 132.19878204 91.25601196 130.99720764 C92.11929959 128.48070272 92.98105506 125.96373386 93.84024048 123.4458313 C95.19656858 119.47138646 96.55888527 115.49901259 97.92260742 111.52709961 C98.26346422 110.53426106 98.26346422 110.53426106 98.61120701 109.52136517 C99.0706991 108.18298072 99.5302064 106.84460149 99.98972893 105.50622749 C100.68142892 103.49102028 101.37258649 101.47562775 102.06361389 99.46018982 C105.94303725 88.14804455 109.86502891 76.8510709 113.8125 65.5625 C114.40665733 63.86271174 115.00081423 62.16292333 115.5949707 60.46313477 C116.48065561 57.92959749 117.36644684 55.39609765 118.25257874 52.86271667 C120.58257211 46.19984413 122.9035115 39.53384285 125.22265625 32.8671875 C126.2681736 29.86340386 127.3138019 26.85965887 128.35946655 23.85592651 C129.03147954 21.92470453 129.70305606 19.9933306 130.37417603 18.0617981 C131.29771416 15.40405508 132.22289184 12.7468882 133.1484375 10.08984375 C133.42369766 9.29629486 133.69895782 8.50274597 133.9825592 7.68515015 C135.88611649 2.22776701 135.88611649 2.22776701 137 0 C148.22 0 159.44 0 171 0 C169.07259811 6.42467296 167.11134252 12.6461636 164.7265625 18.88671875 C164.41111984 19.72041992 164.09567719 20.55412109 163.77067566 21.41308594 C162.72550917 24.17252384 161.67531359 26.93001753 160.625 29.6875 C159.87044709 31.67609719 159.11614029 33.66478779 158.36206055 35.65356445 C151.66536611 53.30155432 144.92446718 70.93281233 138.18359375 88.56396484 C133.44670609 100.95604883 128.72233258 113.35275857 124.01953125 125.7578125 C123.7716794 126.41155916 123.52382755 127.06530582 123.26846504 127.73886299 C120.633803 134.68869248 118.00120467 141.63930014 115.37036133 148.59057617 C110.63954819 161.08423574 105.86540505 173.55808545 101 186 C89.78 186 78.56 186 67 186 C65.57429687 182.03742188 64.14859375 178.07484375 62.6796875 173.9921875 C50.02210604 138.79668493 50.02210604 138.79668493 37.14752197 103.6802063 C33.33471515 93.38487097 29.56792846 83.07350857 25.83203125 72.75 C25.60333281 72.11804907 25.37463436 71.48609814 25.13900566 70.83499718 C22.63371295 63.91107102 20.13193693 56.98588137 17.63256836 50.05981445 C16.78124296 47.70258047 15.92976354 45.34540211 15.078125 42.98828125 C14.66430069 41.84216873 14.25047638 40.69605621 13.82411194 39.51521301 C11.62219241 33.4310314 9.39626005 27.35666911 7.13476562 21.29443359 C6.9007391 20.66636779 6.66671257 20.03830198 6.42559433 19.39120388 C5.29963495 16.37073755 4.16976459 13.3518311 3.03399658 10.33503723 C2.63573669 9.26952133 2.23747681 8.20400543 1.82714844 7.10620117 C1.29658844 5.69548592 1.29658844 5.69548592 0.75531006 4.25627136 C0 2 0 2 0 0 Z " fill="#FCFCFC" transform="translate(810,937)"/>
<path d="M0 0 C10.23 0 20.46 0 31 0 C31 17.16 31 34.32 31 52 C40.9 52 50.8 52 61 52 C61 60.58 61 69.16 61 78 C51.1 78 41.2 78 31 78 C31.06288782 94.19448335 31.13807589 110.38875098 31.23571491 126.5830555 C31.28065737 134.10255658 31.32007556 141.62201048 31.34643555 149.14160156 C31.36942824 155.69660698 31.40284035 162.25146285 31.44870156 168.80634964 C31.47261683 172.27629868 31.49135663 175.74609976 31.49761391 179.2161293 C31.50479901 183.09233063 31.53524886 186.96816152 31.56762695 190.84423828 C31.56619186 191.99150894 31.56475677 193.1387796 31.5632782 194.32081604 C31.64793139 202.08776595 31.64793139 202.08776595 35 209 C40.46974679 212.26791242 45.67244166 212.51946745 51.9375 212.6875 C56.4234375 212.8421875 56.4234375 212.8421875 61 213 C61 221.25 61 229.5 61 238 C45.4543361 240.99675449 26.2281354 243.53646058 12.421875 234.26953125 C4.09199436 227.53845028 1.45593061 219.31533296 0 209 C-0.26124508 204.61045581 -0.25363733 200.23557531 -0.22705078 195.83935547 C-0.22734283 194.56017746 -0.22763489 193.28099945 -0.22793579 191.96305847 C-0.22850512 188.48643118 -0.21681965 185.00994441 -0.20278788 181.53334951 C-0.19020973 177.88854292 -0.18910447 174.24373242 -0.18673706 170.59890747 C-0.18054297 163.71080409 -0.16416046 156.82276488 -0.14403808 149.93468964 C-0.12161428 142.08697403 -0.11066942 134.23925521 -0.10064721 126.39151549 C-0.07979217 110.26096694 -0.04314212 94.13050668 0 78 C-8.25 78 -16.5 78 -25 78 C-25 69.42 -25 60.84 -25 52 C-16.75 52 -8.5 52 0 52 C0 34.84 0 17.68 0 0 Z " fill="#FEFEFE" transform="translate(1203,885)"/>
<path d="M0 0 C10.23 0 20.46 0 31 0 C31 84.15 31 168.3 31 255 C20.77 255 10.54 255 0 255 C0 170.85 0 86.7 0 0 Z " fill="#FEFEFE" transform="translate(753,868)"/>
<path d="M0 0 C10.23 0 20.46 0 31 0 C31 61.38 31 122.76 31 186 C20.77 186 10.54 186 0 186 C0 124.62 0 63.24 0 0 Z " fill="#FDFDFD" transform="translate(1295,937)"/>
<path d="M0 0 C0.14990034 5.19193297 0.25793417 10.38256856 0.32958984 15.57617188 C0.3595022 17.33746316 0.40024866 19.0986089 0.45263672 20.859375 C0.84359033 34.35110747 -0.60158513 45.09114971 -10.25 55.41796875 C-22.73889803 66.70815558 -37.35807609 72.28103505 -54 73 C-55.50626953 73.09667969 -55.50626953 73.09667969 -57.04296875 73.1953125 C-66.31404928 73.55512158 -74.12781457 71.65449636 -81.4375 65.75 C-87.05975525 60.39272809 -89.77467179 54.04290809 -90.203125 46.35546875 C-90.22427438 44.96621895 -90.23973686 43.57687287 -90.25 42.1875 C-90.270625 41.50107422 -90.29125 40.81464844 -90.3125 40.10742188 C-90.36740987 32.85245596 -87.88592105 27.08016593 -82.9765625 21.69921875 C-71.12085407 11.50705834 -53.93611862 10.54390497 -39.0625 8.5 C-26.94187279 6.83032864 -11.36124716 0 0 0 Z " fill="#010101" transform="translate(1667,1029)"/>
<path d="M0 0 C0.92200195 -0.01015137 1.84400391 -0.02030273 2.79394531 -0.03076172 C15.47350194 0.12959605 27.76826833 4.74534881 37.12109375 13.41796875 C47.58064203 25.04718695 50.9375 40.22920295 50.9375 55.4375 C17.2775 55.4375 -16.3825 55.4375 -51.0625 55.4375 C-51.0625 38.35635111 -46.33518804 25.17318755 -34.4765625 12.66015625 C-30.67197833 9.15723005 -26.69348675 6.70342624 -22.0625 4.4375 C-21.30195312 4.025 -20.54140625 3.6125 -19.7578125 3.1875 C-13.31819758 0.22486566 -6.9727149 0.0546014 0 0 Z " fill="#010101" transform="translate(632.0625,959.5625)"/>
<path d="M0 0 C9.83025141 7.7937053 14.01397586 19.16649692 17 31 C17.495 37.93 17.495 37.93 18 45 C-15.99 45 -49.98 45 -85 45 C-83.55160186 27.61922226 -79.451244 13.17844617 -66.37890625 0.96875 C-47.56483464 -14.60151616 -19.54906055 -14.29913616 0 0 Z " fill="#000000" transform="translate(1109,970)"/>
<path d="M0 0 C10.23 0 20.46 0 31 0 C31 11.55 31 23.1 31 35 C20.77 35 10.54 35 0 35 C0 23.45 0 11.9 0 0 Z " fill="#FDFDFD" transform="translate(1295,868)"/>
</svg>
